<svg xmlns="http://www.w3.org/2000/svg" viewBox="0 0 800 600" width="800" height="600">
  <!-- Fondo con gradiente industrial -->
  <defs>
    <linearGradient id="skyGradient" x1="0%" y1="0%" x2="0%" y2="100%">
      <stop offset="0%" style="stop-color:#2a2a2a;stop-opacity:0.8" />
      <stop offset="100%" style="stop-color:#1f201e;stop-opacity:0.9" />
    </linearGradient>
    <linearGradient id="metalGradient" x1="0%" y1="0%" x2="100%" y2="100%">
      <stop offset="0%" style="stop-color:#c0c0c0;stop-opacity:1" />
      <stop offset="50%" style="stop-color:#808080;stop-opacity:1" />
      <stop offset="100%" style="stop-color:#a0a0a0;stop-opacity:1" />
    </linearGradient>
    <linearGradient id="yellowGradient" x1="0%" y1="0%" x2="100%" y2="100%">
      <stop offset="0%" style="stop-color:#fcef13;stop-opacity:1" />
      <stop offset="100%" style="stop-color:#f0d000;stop-opacity:1" />
    </linearGradient>
  </defs>
  
  <!-- Fondo -->
  <rect width="800" height="600" fill="url(#skyGradient)"/>
  
  <!-- Grúa torre principal -->
  <g transform="translate(150, 100)">
    <!-- Base de la grúa -->
    <rect x="-15" y="400" width="30" height="50" fill="url(#metalGradient)"/>
    <!-- Torre vertical -->
    <rect x="-8" y="50" width="16" height="400" fill="url(#metalGradient)"/>
    <!-- Brazo horizontal -->
    <rect x="8" y="45" width="300" height="10" fill="url(#metalGradient)"/>
    <!-- Contrapeso -->
    <rect x="-80" y="35" width="80" height="20" fill="url(#metalGradient)"/>
    <!-- Cable -->
    <line x1="200" y1="55" x2="200" y2="150" stroke="#3a3a3a" stroke-width="2"/>
    <!-- Gancho -->
    <rect x="195" y="150" width="10" height="15" fill="url(#yellowGradient)"/>
  </g>
  
  <!-- Estructura metálica en construcción -->
  <g transform="translate(500, 200)">
    <!-- Vigas horizontales -->
    <rect x="0" y="100" width="150" height="8" fill="url(#metalGradient)"/>
    <rect x="0" y="150" width="150" height="8" fill="url(#metalGradient)"/>
    <rect x="0" y="200" width="150" height="8" fill="url(#metalGradient)"/>
    <!-- Columnas verticales -->
    <rect x="0" y="100" width="8" height="108" fill="url(#metalGradient)"/>
    <rect x="71" y="100" width="8" height="108" fill="url(#metalGradient)"/>
    <rect x="142" y="100" width="8" height="108" fill="url(#metalGradient)"/>
    <!-- Diagonales de refuerzo -->
    <line x1="8" y1="108" x2="71" y2="150" stroke="url(#metalGradient)" stroke-width="4"/>
    <line x1="79" y1="108" x2="142" y2="150" stroke="url(#metalGradient)" stroke-width="4"/>
  </g>
  
  <!-- Chispas de soldadura -->
  <g>
    <circle cx="520" cy="180" r="2" fill="url(#yellowGradient)" opacity="0.8">
      <animate attributeName="opacity" values="0.8;0.2;0.8" dur="0.5s" repeatCount="indefinite"/>
    </circle>
    <circle cx="525" cy="175" r="1.5" fill="#fcef13" opacity="0.6">
      <animate attributeName="opacity" values="0.6;0.1;0.6" dur="0.3s" repeatCount="indefinite"/>
    </circle>
    <circle cx="515" cy="185" r="1" fill="#f0d000" opacity="0.7">
      <animate attributeName="opacity" values="0.7;0.2;0.7" dur="0.4s" repeatCount="indefinite"/>
    </circle>
  </g>
  
  <!-- Maquinaria industrial -->
  <g transform="translate(50, 350)">
    <!-- Base de máquina -->
    <rect x="0" y="100" width="120" height="60" fill="url(#metalGradient)"/>
    <!-- Panel de control -->
    <rect x="10" y="80" width="40" height="20" fill="#3a3a3a"/>
    <!-- Indicadores -->
    <circle cx="20" cy="90" r="3" fill="url(#yellowGradient)"/>
    <circle cx="30" cy="90" r="3" fill="#ff4444"/>
    <circle cx="40" cy="90" r="3" fill="#44ff44"/>
    <!-- Brazo mecánico -->
    <rect x="100" y="70" width="8" height="30" fill="url(#metalGradient)"/>
    <rect x="95" y="65" width="18" height="8" fill="url(#metalGradient)"/>
  </g>
  
  <!-- Chapas metálicas apiladas -->
  <g transform="translate(600, 400)">
    <rect x="0" y="50" width="80" height="4" fill="url(#metalGradient)"/>
    <rect x="0" y="46" width="80" height="4" fill="url(#metalGradient)" opacity="0.9"/>
    <rect x="0" y="42" width="80" height="4" fill="url(#metalGradient)" opacity="0.8"/>
    <rect x="0" y="38" width="80" height="4" fill="url(#metalGradient)" opacity="0.7"/>
    <rect x="0" y="34" width="80" height="4" fill="url(#metalGradient)" opacity="0.6"/>
  </g>
  
  <!-- Elementos decorativos industriales -->
  <g opacity="0.3">
    <!-- Engranajes -->
    <circle cx="700" cy="100" r="25" fill="none" stroke="url(#metalGradient)" stroke-width="3"/>
    <circle cx="700" cy="100" r="15" fill="none" stroke="url(#metalGradient)" stroke-width="2"/>
    <!-- Tuberías -->
    <rect x="20" y="50" width="100" height="6" fill="url(#metalGradient)" rx="3"/>
    <rect x="20" y="60" width="80" height="6" fill="url(#metalGradient)" rx="3"/>
  </g>
  
  <!-- Partículas industriales -->
  <g opacity="0.4">
    <circle cx="300" cy="80" r="1" fill="#fcef13">
      <animate attributeName="cy" values="80;500" dur="8s" repeatCount="indefinite"/>
    </circle>
    <circle cx="450" cy="60" r="1.5" fill="#c0c0c0">
      <animate attributeName="cy" values="60;500" dur="10s" repeatCount="indefinite"/>
    </circle>
    <circle cx="650" cy="90" r="1" fill="#fcef13">
      <animate attributeName="cy" values="90;500" dur="12s" repeatCount="indefinite"/>
    </circle>
  </g>
</svg>