<svg xmlns="http://www.w3.org/2000/svg" viewBox="0 0 600 400" width="600" height="400">
  <!-- Definiciones de gradientes -->
  <defs>
    <linearGradient id="buildingGradient" x1="0%" y1="0%" x2="0%" y2="100%">
      <stop offset="0%" style="stop-color:#4a4a4a;stop-opacity:1" />
      <stop offset="100%" style="stop-color:#2a2a2a;stop-opacity:1" />
    </linearGradient>
    <linearGradient id="metalGradient2" x1="0%" y1="0%" x2="100%" y2="100%">
      <stop offset="0%" style="stop-color:#b0b0b0;stop-opacity:1" />
      <stop offset="50%" style="stop-color:#808080;stop-opacity:1" />
      <stop offset="100%" style="stop-color:#909090;stop-opacity:1" />
    </linearGradient>
    <linearGradient id="yellowAccent" x1="0%" y1="0%" x2="100%" y2="100%">
      <stop offset="0%" style="stop-color:#fcef13;stop-opacity:1" />
      <stop offset="100%" style="stop-color:#f0d000;stop-opacity:1" />
    </linearGradient>
    <radialGradient id="lightGradient" cx="50%" cy="30%" r="70%">
      <stop offset="0%" style="stop-color:#fcef13;stop-opacity:0.3" />
      <stop offset="100%" style="stop-color:#fcef13;stop-opacity:0" />
    </radialGradient>
  </defs>
  
  <!-- Fondo industrial -->
  <rect width="600" height="400" fill="#1f201e"/>
  <rect width="600" height="400" fill="url(#lightGradient)"/>
  
  <!-- Edificio principal de la planta -->
  <g transform="translate(50, 150)">
    <!-- Estructura principal -->
    <rect x="0" y="100" width="200" height="150" fill="url(#buildingGradient)"/>
    <!-- Techo -->
    <polygon points="0,100 100,50 200,100" fill="url(#metalGradient2)"/>
    <!-- Ventanas -->
    <rect x="20" y="120" width="25" height="30" fill="#fcef13" opacity="0.8"/>
    <rect x="60" y="120" width="25" height="30" fill="#fcef13" opacity="0.6"/>
    <rect x="100" y="120" width="25" height="30" fill="#fcef13" opacity="0.9"/>
    <rect x="140" y="120" width="25" height="30" fill="#fcef13" opacity="0.7"/>
    <!-- Puerta principal -->
    <rect x="80" y="200" width="40" height="50" fill="url(#metalGradient2)"/>
    <!-- Logo/Señalización -->
    <rect x="70" y="170" width="60" height="20" fill="url(#yellowAccent)"/>
  </g>
  
  <!-- Chimenea industrial -->
  <g transform="translate(300, 80)">
    <rect x="0" y="50" width="20" height="120" fill="url(#metalGradient2)"/>
    <!-- Humo -->
    <ellipse cx="10" cy="40" rx="8" ry="6" fill="#666" opacity="0.4">
      <animate attributeName="ry" values="6;10;6" dur="3s" repeatCount="indefinite"/>
    </ellipse>
    <ellipse cx="15" cy="25" rx="12" ry="8" fill="#777" opacity="0.3">
      <animate attributeName="ry" values="8;12;8" dur="4s" repeatCount="indefinite"/>
    </ellipse>
  </g>
  
  <!-- Grúa pórtico -->
  <g transform="translate(400, 120)">
    <!-- Pilares -->
    <rect x="0" y="80" width="8" height="100" fill="url(#metalGradient2)"/>
    <rect x="120" y="80" width="8" height="100" fill="url(#metalGradient2)"/>
    <!-- Viga superior -->
    <rect x="0" y="75" width="128" height="10" fill="url(#metalGradient2)"/>
    <!-- Carro -->
    <rect x="60" y="70" width="15" height="8" fill="url(#yellowAccent)"/>
    <!-- Cable -->
    <line x1="67" y1="78" x2="67" y2="120" stroke="#3a3a3a" stroke-width="2"/>
  </g>
  
  <!-- Equipos de corte y plegado -->
  <g transform="translate(100, 300)">
    <!-- Mesa de trabajo -->
    <rect x="0" y="20" width="100" height="40" fill="url(#metalGradient2)"/>
    <!-- Máquina plegadora -->
    <rect x="10" y="0" width="80" height="20" fill="url(#buildingGradient)"/>
    <!-- Panel de control -->
    <rect x="20" y="-10" width="20" height="10" fill="#3a3a3a"/>
    <!-- Indicadores LED -->
    <circle cx="25" cy="-5" r="2" fill="#44ff44"/>
    <circle cx="30" cy="-5" r="2" fill="url(#yellowAccent)"/>
    <circle cx="35" cy="-5" r="2" fill="#ff4444"/>
  </g>
  
  <!-- Almacén de chapas -->
  <g transform="translate(450, 280)">
    <!-- Estanterías -->
    <rect x="0" y="0" width="8" height="80" fill="url(#metalGradient2)"/>
    <rect x="40" y="0" width="8" height="80" fill="url(#metalGradient2)"/>
    <!-- Chapas apiladas -->
    <rect x="10" y="60" width="30" height="3" fill="url(#metalGradient2)"/>
    <rect x="10" y="56" width="30" height="3" fill="url(#metalGradient2)" opacity="0.9"/>
    <rect x="10" y="52" width="30" height="3" fill="url(#metalGradient2)" opacity="0.8"/>
    <rect x="10" y="40" width="30" height="3" fill="url(#metalGradient2)"/>
    <rect x="10" y="36" width="30" height="3" fill="url(#metalGradient2)" opacity="0.9"/>
    <rect x="10" y="32" width="30" height="3" fill="url(#metalGradient2)" opacity="0.8"/>
  </g>
  
  <!-- Vehículos industriales -->
  <g transform="translate(250, 320)">
    <!-- Montacargas -->
    <rect x="0" y="20" width="40" height="25" fill="url(#yellowAccent)"/>
    <!-- Ruedas -->
    <circle cx="8" cy="50" r="6" fill="#3a3a3a"/>
    <circle cx="32" cy="50" r="6" fill="#3a3a3a"/>
    <!-- Horquillas -->
    <rect x="-5" y="15" width="15" height="3" fill="url(#metalGradient2)"/>
    <rect x="-5" y="10" width="15" height="3" fill="url(#metalGradient2)"/>
  </g>
  
  <!-- Elementos decorativos -->
  <g opacity="0.6">
    <!-- Tuberías -->
    <rect x="20" y="50" width="150" height="4" fill="url(#metalGradient2)" rx="2"/>
    <rect x="20" y="60" width="120" height="4" fill="url(#metalGradient2)" rx="2"/>
    <!-- Cables eléctricos -->
    <path d="M 350 40 Q 380 50 400 45 Q 420 40 450 48" stroke="#3a3a3a" stroke-width="3" fill="none"/>
    <path d="M 350 45 Q 380 55 400 50 Q 420 45 450 53" stroke="#3a3a3a" stroke-width="3" fill="none"/>
  </g>
  
  <!-- Iluminación industrial -->
  <g>
    <!-- Reflectores -->
    <ellipse cx="150" cy="100" rx="15" ry="8" fill="url(#yellowAccent)" opacity="0.7">
      <animate attributeName="opacity" values="0.7;0.9;0.7" dur="2s" repeatCount="indefinite"/>
    </ellipse>
    <ellipse cx="350" cy="120" rx="15" ry="8" fill="url(#yellowAccent)" opacity="0.6">
      <animate attributeName="opacity" values="0.6;0.8;0.6" dur="2.5s" repeatCount="indefinite"/>
    </ellipse>
  </g>
  
  <!-- Partículas de ambiente industrial -->
  <g opacity="0.3">
    <circle cx="100" cy="50" r="1" fill="#fcef13">
      <animate attributeName="cy" values="50;350" dur="15s" repeatCount="indefinite"/>
    </circle>
    <circle cx="300" cy="30" r="1.5" fill="#c0c0c0">
      <animate attributeName="cy" values="30;350" dur="18s" repeatCount="indefinite"/>
    </circle>
    <circle cx="500" cy="40" r="1" fill="#fcef13">
      <animate attributeName="cy" values="40;350" dur="20s" repeatCount="indefinite"/>
    </circle>
  </g>
</svg>